<svg xmlns="http://www.w3.org/2000/svg" viewBox="0 0 512 512">
  <defs>
    <linearGradient id="bg" x1="0" y1="0" x2="1" y2="1">
      <stop offset="0%" stop-color="#0d1511"/>
      <stop offset="100%" stop-color="#040705"/>
    </linearGradient>
    <linearGradient id="lime" x1="0" y1="0" x2="1" y2="1">
      <stop offset="0%" stop-color="#f3ffd3"/>
      <stop offset="100%" stop-color="#97ff44"/>
    </linearGradient>
  </defs>
  <rect x="24" y="24" width="464" height="464" rx="124" fill="url(#bg)"/>
  <path d="M354 144c-25-18-55-28-95-28-96 0-164 61-164 146s68 146 164 146c35 0 66-8 92-26l-28-42c-16 10-37 16-60 16-59 0-100-38-100-94 0-57 40-95 101-95 24 0 44 6 61 18l29-41Z" fill="url(#lime)"/>
  <path d="M170 98v66" stroke="#97ff44" stroke-width="18" stroke-linecap="round"/>
  <path d="M132 132h76" stroke="#97ff44" stroke-width="18" stroke-linecap="round"/>
  <path d="M331 104 205 410" stroke="#e8ffbd" stroke-width="24" stroke-linecap="round"/>
  <circle cx="333" cy="107" r="18" fill="#f3ffd3"/>
  <path d="M144 404h158" stroke="#97ff44" stroke-width="16" stroke-linecap="round" opacity="0.95"/>
</svg>
